<?xml version="1.0" encoding="UTF-8" standalone="no"?><!DOCTYPE svg PUBLIC "-//W3C//DTD SVG 1.1//EN" "http://www.w3.org/Graphics/SVG/1.1/DTD/svg11.dtd"><svg width="100%" height="100%" viewBox="0 0 621 138" version="1.1" xmlns="http://www.w3.org/2000/svg" xmlns:xlink="http://www.w3.org/1999/xlink" xml:space="preserve" xmlns:serif="http://www.serif.com/" style="fill-rule:evenodd;clip-rule:evenodd;stroke-linecap:round;stroke-linejoin:round;stroke-miterlimit:1.5;"><path d="M211.202,10.1l-202.153,-0c0,5.818 2.906,10.798 3.578,16.543c0.696,5.952 -1.348,11.61 -0.817,17.664c0.371,4.22 1.018,8.23 2.202,12.3c0.381,1.309 2.102,5.425 2.184,6.049c0.224,1.718 0.343,3.449 0.578,5.166c0.709,5.171 2.222,10.131 2.832,15.368c1.382,11.875 1.834,23.867 2.725,35.79c0.187,2.501 -0.819,11.456 3.518,10.759c5.685,-0.914 2.58,-6.751 1.867,-10.059c-0.376,-1.745 -0.358,-3.773 -0.396,-5.562c-0.225,-10.414 -0.582,-20.899 -1.096,-31.353c-0.29,-5.897 -1.127,-12.044 -0.433,-17.934c0.344,-2.916 1.027,-5.994 1.189,-8.908c0.038,-0.692 0.177,-3.771 0.228,-3.967c0.3,-1.157 0.725,-2.213 1.859,-2.745c4.018,-1.885 10.466,3.24 13.291,6.059c2.103,2.099 3.669,7.061 3.73,10.031c0.039,1.894 -0.489,4.964 2.15,5.252c6.566,0.716 -1.106,-10.988 4.602,-9.698c1.524,0.345 2.661,2.056 4.241,2.5c1.15,0.323 3.085,-0.723 3.979,0.554c1.503,2.145 -0.357,9.331 3.684,9.188c6.343,-0.225 -2.065,-9.412 4.481,-11.369c4.971,-1.487 1.457,10.575 6.664,8.378c3.99,-1.683 0.265,-5.916 1.03,-9.053c0.575,-2.358 6.613,-10.157 8.405,-11.767c0.634,-0.571 1.35,-0.95 2.142,-1.254c3.245,-1.247 5.081,0.522 5.504,3.75c0.172,1.304 0.391,3.84 2.387,3.509c4.474,-0.743 1.031,-4.215 2.055,-6.613c1.025,-2.401 5.803,-4.179 8.189,-4.487c2.627,-0.34 11.553,2.563 12.602,4.904c0.753,1.682 -0.478,7.299 1.453,7.875c5.773,1.726 1.611,-8.384 7.354,-6.659c0.666,0.2 1.269,0.618 1.837,1.01c2.582,1.785 4.3,5.059 4.257,8.304c-0.016,1.148 -0.477,2.24 -0.238,3.392c0.342,1.654 1.645,3.074 3.441,2.878c4.071,-0.443 2.525,-5.409 3.099,-8.086c1.246,-5.805 5.33,-13.554 12.375,-13.248c7.235,0.316 5.102,10.72 5.383,15.412c0.08,1.322 -0.548,6.445 2.009,6.04c2.443,-0.388 1.221,-3.753 1.053,-5.26c-0.485,-4.354 -0.496,-8.762 -0.393,-13.134c0.041,-1.737 -0.092,-4.162 2.224,-4.29c5.954,-0.328 10.952,5.944 11.804,11.353c0.311,1.972 -0.263,4.008 -0.492,5.96c-0.311,2.657 -1.526,8.819 2.588,9.027c4.057,0.205 3.09,-4.119 3.114,-6.88c0.044,-5.132 -0.324,-11.689 2.808,-16.063c1.787,-2.497 5.223,-4.882 7.389,-1.523c2.956,4.581 1.461,11.266 1.941,16.482c0.514,5.588 1.517,11.164 1.674,16.78c0.114,4.096 -0.541,8.166 -0.508,12.26c0.04,4.954 0.443,9.648 -0.04,14.605c-0.427,4.374 -1.044,9.16 -0.298,13.531c0.297,1.737 2.468,3.61 4.299,3.108c2.844,-0.78 1.907,-4.37 1.739,-6.496c-0.528,-6.726 -0.103,-13.703 0.387,-20.42c0.434,-5.954 -0.396,-11.943 0.281,-17.882c0.55,-4.828 1.658,-9.568 2.348,-14.374c0.352,-2.448 0.232,-4.946 0.688,-7.381c0.478,-2.548 1.771,-4.889 2.054,-7.481c0.304,-2.78 -0.665,-5.519 -0.372,-8.3c0.723,-6.852 4.942,-23.115 7.741,-29.535Z" style="fill:#f00;stroke:#f00;stroke-width:1px;"/><path d="M211.673,10.368l0,0.044c0,0.007 0,-0.319 0,-0.312c0,-0.217 -0.568,5.19 -0.456,6.598c0.336,4.24 1.494,8.207 2.521,12.313c2.742,10.972 8.252,22.029 8.252,33.453c-0,1.858 -0.939,10.116 1.332,10.666c1.597,0.386 3.548,-0.442 3.837,-2.235c0.294,-1.828 -1.15,-4.102 -1.281,-5.993c-0.304,-4.366 0.374,-8.713 -0.019,-13.058c-0.097,-1.079 -0.85,-6.381 -0.603,-6.486c1.037,-0.444 2.119,0.854 2.138,1.759c0.031,1.4 -0.764,9.223 2.359,8.596c1.269,-0.255 1.909,-1.606 1.894,-2.82c-0.056,-4.299 -3.627,-9.617 3.148,-11.59c0.983,-0.286 2.162,-0.4 3.092,0.097c5.112,2.731 3.653,8.978 3.343,13.911c-0.117,1.851 -0.484,6.16 2.502,6.035c3.178,-0.134 2.207,-2.804 1.592,-4.714c-0.663,-2.061 -1.223,-9.406 0.724,-10.709c1.116,-0.747 2.705,0.034 3.976,-0.571c1.738,-0.828 4.558,-6.633 7.066,-4.131c1.648,1.643 0.503,8.117 0.886,10.652c0.181,1.201 0.882,3.303 2.533,2.736c4.255,-1.46 1.447,-5.542 0.829,-8.497c-0.825,-3.948 1.44,-6.204 4.521,-7.945c1.124,-0.635 2.372,-1.429 3.701,-1.497c4.762,-0.245 2.627,3.935 2.596,6.791c-0.016,1.388 0.606,2.952 0.835,4.33c0.554,3.341 1.962,6.188 2.716,9.426c1.138,4.883 1.41,10.538 1.187,15.536c-0.19,4.257 -0.458,8.322 0.474,12.541c0.592,2.683 3.387,2.942 4.399,0.234c0.768,-2.055 -0.55,-4.285 -0.757,-6.324c-0.472,-4.627 0.528,-9.27 0.382,-13.902c-0.058,-1.845 -1.074,-4.414 0.045,-6.093c1.683,-2.524 6.243,-0.314 7.995,1.078c3.491,2.773 4.11,7.495 4.811,11.607c1.1,6.452 1.446,12.928 1.984,19.437c0.334,4.039 0.966,8.063 0.735,12.127c-0.185,3.267 -0.925,6.569 -0.461,9.844c0.222,1.566 1.449,3.226 3.231,2.801c4.507,-1.075 1.976,-6.229 1.503,-9.192c-0.39,-2.448 0.309,-4.918 0.274,-7.372c-0.057,-4.057 -0.698,-8.095 -0.545,-12.158c0.101,-2.685 0.863,-5.299 0.961,-7.979c0.11,-3.027 -4.302,-8.056 0.456,-9.421c2.164,-0.621 4.529,-0.713 6.761,-0.532c13.935,1.131 11.838,18.523 11.346,28.667c-0.099,2.036 -0.757,4.623 -0.528,6.89c0,-0.281 0.151,0.54 0.24,0.806c0.191,0.568 0.428,1.151 0.892,1.553c1.064,0.921 3.349,1.421 3.873,-0.321c0.729,-2.427 -0.497,-4.543 -0.497,-6.956c-0,-4.172 0.584,-8.404 0.383,-12.559c-0.153,-3.169 -0.827,-6.419 -0.41,-9.61c0.875,-6.686 5.796,-12.207 9.492,-17.52c2.557,-3.674 4.77,-7.908 5.862,-12.279c0.759,-3.043 1.246,-8.162 3.422,-10.496c4.143,-4.444 10.035,-1.676 12.666,2.713c4.515,7.533 4.832,17.137 3.996,25.655c-0.174,1.771 -1.387,8.648 1.589,8.898c3.319,0.28 2.833,-3.816 2.664,-5.899c-0.568,-6.997 0.672,-14.636 -1.02,-21.423c-0.313,-1.257 0.346,-5.31 2.288,-3.315c0.941,0.967 0.204,2.5 -0.075,3.58c-0.623,2.406 -0.259,4.775 0.108,7.188c1.3,8.524 2.779,17.16 2.804,25.808c0.008,2.445 -0.363,4.865 -0.644,7.291c0.432,-0 0.131,1.858 0.131,2.055c0,1.717 0.19,7.087 3.256,5.077c2.655,-1.739 1.023,-6.681 0.778,-9.143c-0.502,-5.039 0.475,-11.334 0.714,-16.43c0.085,-1.823 -1.011,-3.749 -0.692,-5.509c1.142,-6.308 8.205,-16.002 11.811,-21.545c1.852,-2.847 2.231,-6.131 3.747,-9.089c0.899,-1.754 2.239,-3.175 3.205,-4.87c1.384,-2.427 2.205,-5.194 3.698,-7.572c2.115,-3.367 5.911,-8 8.493,-10.994l-191.061,0.268Z" style="fill:#f00;stroke:#f00;stroke-width:1px;"/><path d="M608.224,10.1l-216.376,0.005c0.533,0 2.787,3.514 3.215,3.994c2.817,3.153 7.084,11.425 9.093,15.422c2.048,4.076 4.481,7.951 5.704,12.372c5.945,21.483 1.229,42.562 3.694,63.995c0.498,4.328 1.561,8.551 2.118,12.856c0.331,2.561 0.012,5.155 0.239,7.723c0.202,2.291 0.487,5.084 3.15,5.715c6.545,1.552 8.129,-9.067 7.456,-13.459c-0.611,-3.976 1.688,-7.365 1.435,-11.355c-0.254,-4.003 -2.437,-7.702 -2.753,-11.674c-0.213,-2.686 0.475,-5.194 0.49,-7.851c0.016,-2.651 -0.918,-5.271 -0.781,-7.9c0.295,-5.662 2.546,-14.42 3.798,-20.163c1.312,-6.014 2.538,-11.94 4.357,-17.826c0.29,-0.94 2.145,-5.231 4.008,-4.044c1.137,0.725 1.342,2.136 1.326,3.521c0.733,0.385 -0.007,3.788 -0.032,4.26c-0.203,3.778 -1.369,7.552 -1.407,11.33c-0.015,1.427 1.69,2.568 3.375,2.713c2.538,0.219 2.798,-2.043 3.122,-4.054c0.879,-5.459 -1.492,-10.971 2.422,-15.68c1.379,-1.66 6.572,-7.286 8.846,-6.673c3.831,1.032 -2.07,9.607 3.297,9.106c5.674,-0.531 1.311,-6.769 4.266,-9.492c2.937,-2.706 4.456,3.002 7.167,3.292c3.02,0.323 5.028,-4.722 8.159,-2.493c0.991,0.705 0.69,3.285 0.862,4.356c0.689,4.273 1.022,8.734 -0.001,12.985c-0.547,2.274 -0.815,5.742 2.384,6.104c5.464,0.617 2.984,-9.109 3.502,-11.981c0.354,-1.963 2.145,-3.938 4.306,-3.271c1.55,0.479 2.168,2.471 2.93,3.727c2.47,4.071 4.178,8.378 3.902,13.186c-0.138,2.4 0.017,6.395 3.246,6.516c2.827,0.105 3.535,-2.513 3.733,-4.776c0.522,-5.951 0.337,-12.485 3.276,-17.895c1.544,-2.843 7.93,2.25 10.823,0.125c1.758,-1.291 2.522,-3.599 3.81,-5.288c1.854,-2.43 5.161,-4.361 8.199,-6.275c2.956,-1.863 5.624,-3.753 8.865,-2.931c4.138,1.049 4.643,6.171 4.94,9.716c0.153,1.824 -0.06,4.082 2.071,4.782c4.256,1.397 4.927,-4.887 8.141,-6.22c1.222,-0.507 3.538,-1.556 4.548,-0.181c3.35,4.557 3.984,15.694 3.697,21.2c-0.141,2.716 -1.273,7.414 2.492,8.287c1.477,0.343 3.634,-0.153 4.199,-1.726c0.709,-1.975 0.019,-4.4 0.42,-6.48c1.157,-6.018 4.353,-10.806 8.645,-15.209c2.016,-2.069 4.778,-4.526 6.721,-6.668c2.4,-2.644 4.125,-6.03 8.992,-8.546c4.628,-2.392 5.767,-4.694 9.344,-8.551c2.665,-2.873 6.586,-4.367 6.565,-8.626Z" style="fill:#f00;stroke:#f00;stroke-width:1px;"/></svg>