<?xml version="1.0" encoding="UTF-8" standalone="no"?>
<!DOCTYPE svg PUBLIC "-//W3C//DTD SVG 1.1//EN" "http://www.w3.org/Graphics/SVG/1.1/DTD/svg11.dtd">
<svg width="100%" height="100%" viewBox="0 0 415 349" version="1.1"
    xmlns="http://www.w3.org/2000/svg"
    xmlns:xlink="http://www.w3.org/1999/xlink" xml:space="preserve"
    xmlns:serif="http://www.serif.com/" style="fill-rule:evenodd;clip-rule:evenodd;stroke-linejoin:round;stroke-miterlimit:2;">
            
<path style="fill:#1461b7" d="M409.731,133.336c-0.829,-1.864 -3.55,-0.917 -4.438,-1.76c-0.591,-0.592 0.474,-2.855 0,-3.55c-1.05,-1.598 -9.673,-2.781 -11.537,-4.438c-3.476,-3.136 -1.361,-8.194 -5.31,-9.762c-10.635,-4.245 -14.999,7.129 -23.09,7.085c-1.878,-0 -7.617,-1.213 -9.747,-3.55c-0.666,-0.71 0.325,-3.461 -0,-4.437c-0.74,-2.086 -4.719,-13.106 -6.227,-14.2c-3.92,-2.855 -8.298,1.76 -7.973,1.775c-6.553,-0.429 -19.377,-11.966 -20.427,-16.848c-1.08,-5.117 5.355,-22.187 -5.31,-19.539c-5.488,1.375 -3.506,7.277 -4.437,10.664c-1.169,4.172 -7.189,9.615 -10.665,10.636c-0.163,0.059 -2.648,-1.775 -3.535,-1.761c-2.781,0.03 -7.973,2.707 -9.763,2.648c-10.472,-0.266 -8.697,-21.684 -17.749,-20.412c-5.636,0.799 -4.245,8.401 -5.34,14.2c-0.843,4.555 -7.544,14.111 -9.762,15.087c-3.891,1.73 -9.999,-3.52 -14.185,-0c-1.317,1.109 -0.045,7.011 -1.79,9.762c-0.932,1.494 -9.733,3.284 -13.298,10.665c-2.1,4.319 -0.222,7.44 -1.789,9.747c-1.169,1.746 -4.527,1.435 -6.213,3.55c-1.316,1.672 -0.71,4.305 -1.775,5.34c-3.786,3.713 -10.783,4.186 -11.522,6.198c-1.982,5.325 5.975,9.185 5.31,12.425c-0.621,3.017 -7.736,2.159 -8.875,5.339c-3.772,10.547 9.792,8.491 14.2,10.635c10.96,5.355 -1.701,17.735 0.887,29.302c0.799,3.52 8.209,7.411 7.988,10.65c-0.148,2.485 -5.311,3.476 -8.875,7.987c-5.399,6.849 -10.014,7.248 -16.863,13.298c-4.245,3.772 -9.91,13.83 -15.959,16.877c-1.805,0.887 -3.299,-0.488 -4.453,0.873c-7.233,8.638 1.627,15.871 8.875,9.762c6.819,-5.724 20.841,-19.037 27.512,-23.06c3.757,-2.278 10.694,-3.358 12.44,-4.452c2.485,-1.568 6.715,-10.916 11.522,-10.65c5.015,0.296 6.745,8.372 12.425,10.65c3.047,1.228 4.364,-0.681 7.1,0.902c15.206,8.683 -8.298,38.413 1.775,45.247c13.815,9.378 13.312,-32.408 19.54,-32.837c7.824,-0.518 0.088,35.559 11.522,38.177c10.842,2.47 5.872,-17.306 6.212,-29.302c0.015,-0.518 1.154,-8.83 1.775,-9.748c2.204,-3.298 16.138,-6.108 21.315,-5.324c3.254,0.488 7.159,6.434 10.65,6.197c8.416,-0.547 3.742,-11.493 7.987,-14.2c9.807,-6.242 11.552,10.532 14.2,14.2c3.594,5.014 11.966,9.437 15.975,6.213c12.425,-9.97 -14.067,-20.635 -14.2,-24.835c0.089,2.544 -1.169,-8.431 -0.902,-8.89c3.905,-6.301 18.297,3.432 21.314,-0.873c4.364,-6.316 -8.387,-7.528 -7.987,-7.114c-7.159,-7.692 4.955,-11.863 6.197,-15.073c1.968,-5.014 -2.692,-7.706 0,-12.425c1.672,-2.943 8.402,-4.452 14.2,-4.437c2.189,-0 15.442,4.186 16.862,0.873c0.784,-1.805 -3.771,-5.887 -4.437,-6.198c1.731,0.814 -9.245,-0.976 -10.635,-0.902c-6.36,0.37 -4.053,3.52 -6.213,-3.535c-1.597,-5.163 -1.168,-2.382 -0.902,-7.115c0.266,-4.26 -0.532,-5.088 3.55,-5.31c9.26,-0.503 18.253,5.236 23.962,-2.677c1.968,-2.707 2.382,-14.378 0.888,-17.75"/>
</svg>